<svg width="2500" height="429" viewBox="0 0 2500 429" fill="none" xmlns="http://www.w3.org/2000/svg">
<ellipse cx="233" cy="214.5" rx="233" ry="214.5" fill="white"/>
<path d="M528.281 304V99.25H600C624.844 99.25 643.688 104.031 656.531 113.594C669.375 123.062 675.797 136.984 675.797 155.359C675.797 165.391 673.219 174.25 668.062 181.938C662.906 189.531 655.734 195.109 646.547 198.672C657.047 201.297 665.297 206.594 671.297 214.562C677.391 222.531 680.438 232.281 680.438 243.812C680.438 263.5 674.156 278.406 661.594 288.531C649.031 298.656 631.125 303.812 607.875 304H528.281ZM570.469 214.844V270.109H606.609C616.547 270.109 624.281 267.766 629.812 263.078C635.438 258.297 638.25 251.734 638.25 243.391C638.25 224.641 628.547 215.125 609.141 214.844H570.469ZM570.469 185.031H601.688C622.969 184.656 633.609 176.172 633.609 159.578C633.609 150.297 630.891 143.641 625.453 139.609C620.109 135.484 611.625 133.422 600 133.422H570.469V185.031ZM800.672 288.531C790.641 300.719 776.766 306.812 759.047 306.812C742.734 306.812 730.266 302.125 721.641 292.75C713.109 283.375 708.75 269.641 708.562 251.547V151.844H749.203V250.141C749.203 265.984 756.422 273.906 770.859 273.906C784.641 273.906 794.109 269.125 799.266 259.562V151.844H840.047V304H801.797L800.672 288.531ZM956.203 189.953C950.672 189.203 945.797 188.828 941.578 188.828C926.203 188.828 916.125 194.031 911.344 204.438V304H870.703V151.844H909.094L910.219 169.984C918.375 156.016 929.672 149.031 944.109 149.031C948.609 149.031 952.828 149.641 956.766 150.859L956.203 189.953ZM967.172 226.797C967.172 203.453 972.703 184.656 983.766 170.406C994.922 156.156 1009.92 149.031 1028.77 149.031C1045.45 149.031 1058.44 154.75 1067.72 166.188L1069.41 151.844H1106.25V298.938C1106.25 312.25 1103.2 323.828 1097.11 333.672C1091.11 343.516 1082.62 351.016 1071.66 356.172C1060.69 361.328 1047.84 363.906 1033.12 363.906C1021.97 363.906 1011.09 361.656 1000.5 357.156C989.906 352.75 981.891 347.031 976.453 340L994.453 315.25C1004.58 326.594 1016.86 332.266 1031.3 332.266C1042.08 332.266 1050.47 329.359 1056.47 323.547C1062.47 317.828 1065.47 309.672 1065.47 299.078V290.922C1056.09 301.516 1043.77 306.812 1028.48 306.812C1010.2 306.812 995.391 299.688 984.047 285.438C972.797 271.094 967.172 252.109 967.172 228.484V226.797ZM1007.81 229.75C1007.81 243.531 1010.58 254.359 1016.11 262.234C1021.64 270.016 1029.23 273.906 1038.89 273.906C1051.27 273.906 1060.12 269.266 1065.47 259.984V196C1060.03 186.719 1051.27 182.078 1039.17 182.078C1029.42 182.078 1021.73 186.062 1016.11 194.031C1010.58 202 1007.81 213.906 1007.81 229.75ZM1228.73 288.531C1218.7 300.719 1204.83 306.812 1187.11 306.812C1170.8 306.812 1158.33 302.125 1149.7 292.75C1141.17 283.375 1136.81 269.641 1136.62 251.547V151.844H1177.27V250.141C1177.27 265.984 1184.48 273.906 1198.92 273.906C1212.7 273.906 1222.17 269.125 1227.33 259.562V151.844H1268.11V304H1229.86L1228.73 288.531ZM1368.8 306.812C1346.48 306.812 1328.3 299.969 1314.23 286.281C1300.27 272.594 1293.28 254.359 1293.28 231.578V227.641C1293.28 212.359 1296.23 198.719 1302.14 186.719C1308.05 174.625 1316.39 165.344 1327.17 158.875C1338.05 152.312 1350.42 149.031 1364.3 149.031C1385.11 149.031 1401.47 155.594 1413.38 168.719C1425.38 181.844 1431.38 200.453 1431.38 224.547V241.141H1334.48C1335.8 251.078 1339.73 259.047 1346.3 265.047C1352.95 271.047 1361.34 274.047 1371.47 274.047C1387.12 274.047 1399.36 268.375 1408.17 257.031L1428.14 279.391C1422.05 288.016 1413.8 294.766 1403.39 299.641C1392.98 304.422 1381.45 306.812 1368.8 306.812ZM1364.16 181.938C1356.09 181.938 1349.53 184.656 1344.47 190.094C1339.5 195.531 1336.31 203.312 1334.91 213.438H1391.44V210.203C1391.25 201.203 1388.81 194.266 1384.12 189.391C1379.44 184.422 1372.78 181.938 1364.16 181.938ZM1540.08 189.953C1534.55 189.203 1529.67 188.828 1525.45 188.828C1510.08 188.828 1500 194.031 1495.22 204.438V304H1454.58V151.844H1492.97L1494.09 169.984C1502.25 156.016 1513.55 149.031 1527.98 149.031C1532.48 149.031 1536.7 149.641 1540.64 150.859L1540.08 189.953ZM1730.34 206.266C1730.34 225.391 1727.25 242.031 1721.06 256.188C1714.88 270.25 1706.3 281.547 1695.33 290.078L1729.36 316.797L1702.5 340.562L1658.91 305.547C1653.94 306.391 1648.78 306.812 1643.44 306.812C1626.47 306.812 1611.33 302.734 1598.02 294.578C1584.7 286.422 1574.39 274.797 1567.08 259.703C1559.77 244.516 1556.06 227.078 1555.97 207.391V197.266C1555.97 177.109 1559.58 159.391 1566.8 144.109C1574.11 128.734 1584.38 116.969 1597.59 108.812C1610.91 100.562 1626.09 96.4375 1643.16 96.4375C1660.22 96.4375 1675.36 100.562 1688.58 108.812C1701.89 116.969 1712.16 128.734 1719.38 144.109C1726.69 159.391 1730.34 177.062 1730.34 197.125V206.266ZM1687.59 196.984C1687.59 175.516 1683.75 159.203 1676.06 148.047C1668.38 136.891 1657.41 131.312 1643.16 131.312C1629 131.312 1618.08 136.844 1610.39 147.906C1602.7 158.875 1598.81 175 1598.72 196.281V206.266C1598.72 227.172 1602.56 243.391 1610.25 254.922C1617.94 266.453 1629 272.219 1643.44 272.219C1657.59 272.219 1668.47 266.688 1676.06 255.625C1683.66 244.469 1687.5 228.25 1687.59 206.969V196.984ZM1849.73 288.531C1839.7 300.719 1825.83 306.812 1808.11 306.812C1791.8 306.812 1779.33 302.125 1770.7 292.75C1762.17 283.375 1757.81 269.641 1757.62 251.547V151.844H1798.27V250.141C1798.27 265.984 1805.48 273.906 1819.92 273.906C1833.7 273.906 1843.17 269.125 1848.33 259.562V151.844H1889.11V304H1850.86L1849.73 288.531ZM1989.8 306.812C1967.48 306.812 1949.3 299.969 1935.23 286.281C1921.27 272.594 1914.28 254.359 1914.28 231.578V227.641C1914.28 212.359 1917.23 198.719 1923.14 186.719C1929.05 174.625 1937.39 165.344 1948.17 158.875C1959.05 152.312 1971.42 149.031 1985.3 149.031C2006.11 149.031 2022.47 155.594 2034.38 168.719C2046.38 181.844 2052.38 200.453 2052.38 224.547V241.141H1955.48C1956.8 251.078 1960.73 259.047 1967.3 265.047C1973.95 271.047 1982.34 274.047 1992.47 274.047C2008.12 274.047 2020.36 268.375 2029.17 257.031L2049.14 279.391C2043.05 288.016 2034.8 294.766 2024.39 299.641C2013.98 304.422 2002.45 306.812 1989.8 306.812ZM1985.16 181.938C1977.09 181.938 1970.53 184.656 1965.47 190.094C1960.5 195.531 1957.31 203.312 1955.91 213.438H2012.44V210.203C2012.25 201.203 2009.81 194.266 2005.12 189.391C2000.44 184.422 1993.78 181.938 1985.16 181.938ZM2145.61 306.812C2123.3 306.812 2105.11 299.969 2091.05 286.281C2077.08 272.594 2070.09 254.359 2070.09 231.578V227.641C2070.09 212.359 2073.05 198.719 2078.95 186.719C2084.86 174.625 2093.2 165.344 2103.98 158.875C2114.86 152.312 2127.23 149.031 2141.11 149.031C2161.92 149.031 2178.28 155.594 2190.19 168.719C2202.19 181.844 2208.19 200.453 2208.19 224.547V241.141H2111.3C2112.61 251.078 2116.55 259.047 2123.11 265.047C2129.77 271.047 2138.16 274.047 2148.28 274.047C2163.94 274.047 2176.17 268.375 2184.98 257.031L2204.95 279.391C2198.86 288.016 2190.61 294.766 2180.2 299.641C2169.8 304.422 2158.27 306.812 2145.61 306.812ZM2140.97 181.938C2132.91 181.938 2126.34 184.656 2121.28 190.094C2116.31 195.531 2113.12 203.312 2111.72 213.438H2168.25V210.203C2168.06 201.203 2165.62 194.266 2160.94 189.391C2156.25 184.422 2149.59 181.938 2140.97 181.938ZM2268.8 151.844L2270.06 169.422C2280.94 155.828 2295.52 149.031 2313.8 149.031C2329.92 149.031 2341.92 153.766 2349.8 163.234C2357.67 172.703 2361.7 186.859 2361.89 205.703V304H2321.25V206.688C2321.25 198.062 2319.38 191.828 2315.62 187.984C2311.88 184.047 2305.64 182.078 2296.92 182.078C2285.48 182.078 2276.91 186.953 2271.19 196.703V304H2230.55V151.844H2268.8Z" fill="white"/>
<path d="M382.568 250.58C382.462 243.934 380.632 237.379 377.196 231.335C376.687 230.508 376.051 229.689 375.405 228.861C374.759 228.034 373.741 226.805 372.596 225.466H372.469C370.226 222.696 367.703 220.079 364.924 217.644C364.024 216.817 362.967 216.068 362.105 215.375C358.905 213.012 356.351 211.16 354.051 209.719C354.04 209.638 353.995 209.564 353.924 209.506C351.233 207.86 348.933 206.418 346.095 204.976C343.923 203.85 341.486 202.613 338.55 201.172C337.268 200.557 335.732 199.832 333.941 199.013C323.139 194.528 311.78 190.974 300.051 188.41C290.682 186.342 281.156 184.763 271.534 183.683C267.952 183.274 264.243 182.966 260.407 182.659C242.793 181.49 225.074 181.868 207.561 183.786C206.789 183.806 206.02 183.877 205.262 183.998C203.98 184.101 202.707 184.305 201.425 184.51C192.915 185.484 184.499 186.929 176.236 188.835C162.648 191.963 149.622 196.497 137.482 202.322C137 202.621 136.486 202.884 135.946 203.109C133.264 204.449 130.837 205.788 128.792 207.048C124.971 209.253 121.371 211.698 118.027 214.359C116.236 215.8 114.827 216.927 113.809 217.754C109.22 221.634 105.303 225.996 102.164 230.721C100.603 232.942 99.2364 235.248 98.0732 237.621C95.4311 243.008 93.6711 248.649 92.8376 254.401C92.0588 258.419 91.6727 262.481 91.6828 266.548C91.6828 268.604 91.81 270.771 91.9373 272.929C92.1917 275.403 92.4461 277.868 92.9648 280.342C93.2233 282.177 93.6055 283.999 94.1098 285.801C96.6534 296.548 102.687 306.561 111.598 314.822C127.736 328 147.82 337.607 169.914 342.717C214.951 354.291 263.419 353.894 308.154 341.583C329.685 336.246 349.121 326.491 364.552 313.278C372.605 305.381 378.452 296.182 381.697 286.305V286.1C383.982 279.765 385.315 273.233 385.671 266.643V265.611C385.04 260.552 384.004 255.531 382.568 250.58V250.58ZM117.597 219.597C119.739 217.326 122.133 215.217 124.75 213.295C130.327 208.917 136.556 205.112 143.295 201.967L144.45 201.353C145.595 200.841 146.75 200.321 147.905 199.911C161.754 193.918 176.616 189.584 192.021 187.047C200.662 185.521 209.421 184.468 218.238 183.896C234.199 182.675 250.276 182.847 266.191 184.408C279.002 185.5 291.642 187.638 303.917 190.789C312.389 192.944 320.606 195.701 328.47 199.029C330.427 199.746 332.306 200.604 334.097 201.392C334.671 201.627 335.227 201.89 335.761 202.18C343.842 205.989 351.243 210.664 357.76 216.076C363.897 221.21 368.573 227.358 371.461 234.092C375.189 243.516 374.227 253.737 368.78 262.601C361.002 274.144 349.152 283.574 334.724 289.701C282.543 314.121 197.628 314.121 145.067 289.701C130.33 283.529 118.251 273.919 110.414 262.129C107.691 257.74 106.074 252.96 105.658 248.066C105.241 243.171 106.033 238.259 107.987 233.612V233.509C108.745 231.62 109.728 229.795 110.923 228.058C110.923 227.956 111.05 227.956 111.05 227.845C112.801 224.889 115 222.119 117.597 219.597V219.597Z" fill="url(#paint0_radial)"/>
<path opacity="0.6" d="M385.613 265.611V266.643C385.258 273.233 383.924 279.766 381.64 286.101V286.306L375.769 287.881C369.76 289.63 365.924 292.718 365.924 296.113L366.051 299.926C366.051 308.466 351.861 315.366 334.334 315.366H326.788C320.611 315.108 314.552 316.804 309.907 320.093L306.071 323.386C300.06 327.251 292.912 329.804 285.318 330.796C277.723 331.788 269.939 331.187 262.718 329.05L256.201 327.199C249.833 325.532 242.968 325.568 236.628 327.301L229.719 329.152C223.473 330.86 216.859 331.522 210.284 331.097C203.709 330.671 197.311 329.168 191.484 326.679C189.579 325.857 187.851 324.793 186.366 323.528L178.185 316.737L176.521 315.705H157.595C149.727 315.816 141.963 314.253 135.086 311.176C132.497 310.156 130.277 308.616 128.642 306.705C127.006 304.794 126.01 302.576 125.75 300.265V292.277L123.705 290.631L109.026 286.511C106.761 285.854 104.578 285.026 102.508 284.037C102.116 283.935 96.7536 281.776 93.0446 280.335C92.526 277.861 92.2715 275.395 92.0171 272.922C94.8355 270.346 98.7989 268.085 98.7989 264.17L100.971 262.318C101.805 261.727 102.472 261 102.929 260.185C103.386 259.37 103.622 258.486 103.622 257.592C103.622 256.698 103.386 255.814 102.929 254.999C102.472 254.184 101.805 253.457 100.971 252.865L99.9439 252.038C100.787 246.286 102.55 240.646 105.189 235.259C106.348 232.886 107.715 230.582 109.28 228.366L111.071 227.846L114.907 226.719C115.97 226.456 117 226.111 117.98 225.687C119.795 225.117 121.378 224.153 122.551 222.901C123.724 221.649 124.442 220.159 124.625 218.597V214.659C124.598 214.21 124.641 213.76 124.752 213.319C124.803 212.86 124.934 212.409 125.143 211.98C125.883 210.123 127.153 208.431 128.852 207.041C131.32 205.007 134.277 203.398 137.543 202.314C139.316 201.663 141.156 201.136 143.042 200.739C144.579 200.424 146.243 200.116 147.936 199.912C148.699 199.809 149.462 199.707 150.363 199.604C152.309 199.397 154.271 199.294 156.234 199.297H163.779C169.948 199.505 175.984 197.815 180.661 194.571L184.624 191.27C186.776 189.531 189.286 188.105 192.042 187.055C195.053 185.887 198.232 185.022 201.505 184.479C202.787 184.274 204.06 184.07 205.342 183.967C206.1 183.846 206.869 183.775 207.641 183.755C211.175 183.481 214.735 183.518 218.259 183.865C221.575 184.127 224.838 184.715 227.977 185.614L234.504 187.362C240.844 189.095 247.71 189.131 254.077 187.465L260.849 185.511C262.588 184.992 264.388 184.617 266.222 184.393C267.977 184.002 269.777 183.759 271.594 183.668C281.178 182.778 290.869 184.288 299.348 187.993C299.602 188.095 299.857 188.3 300.111 188.41C301.467 189.113 302.75 189.903 303.947 190.774L304.466 191.183L308.038 194.271C308.994 195.035 310.07 195.694 311.238 196.233C315.498 198.139 320.311 199.099 325.184 199.014H333.991C336.95 199.063 339.898 199.326 342.799 199.801C346.404 200.303 349.895 201.241 353.153 202.582C353.949 202.847 354.721 203.158 355.462 203.512C357.507 204.483 359.357 205.696 360.952 207.112C361.025 207.166 361.073 207.238 361.089 207.317C363.172 209.052 364.477 211.298 364.798 213.697V214.422L364.925 217.613V218.022C365.1 219.439 365.72 220.796 366.727 221.966C367.734 223.136 369.094 224.081 370.68 224.71C371.26 224.977 371.858 225.219 372.471 225.435H372.598C373.743 226.774 374.643 228.011 375.406 228.83C376.17 229.65 376.688 230.477 377.197 231.304C381.415 237.48 378.988 241.6 380.133 249.32C380.906 253.677 385.379 260.774 385.613 265.611Z" fill="url(#paint1_radial)"/>
<path d="M93.0039 250.579C93.1643 253.462 93.6757 256.325 94.5306 259.127C93.8766 256.794 93.4513 254.423 93.2583 252.037C93.1703 251.611 93.1703 251.099 93.0039 250.579Z" fill="#FFAD4F"/>
<path d="M92.7802 244.098C92.6747 244.539 92.632 244.988 92.653 245.437V241.734C92.6322 242.353 92.6748 242.972 92.7802 243.586V244.098Z" fill="#FFAD4F"/>
<path d="M376.053 265.894C367.848 278.081 355.344 288.039 340.118 294.513C284.992 320.289 195.282 320.289 139.755 294.513C124.181 287.986 111.418 277.828 103.135 265.366C100.262 260.729 98.5562 255.68 98.1162 250.51C97.6761 245.34 98.5103 240.151 100.571 235.242V235.116C107.891 220.431 121.571 208.378 139.079 201.187C194.195 175.411 283.915 175.301 339.443 201.187C357.401 208.445 371.434 220.748 378.891 235.77C382.828 245.728 381.81 256.527 376.053 265.894V265.894Z" fill="#FFECBB"/>
<path d="M390.857 265.233V256.701C390.857 256.701 384.438 255.48 384.438 256.701C384.438 257.922 384.682 267.076 384.438 266.871C386.528 266.207 388.673 265.659 390.857 265.233V265.233Z" fill="#70C324"/>
<path d="M390.505 233.305L390.388 225.648C390.388 225.648 383.733 224.734 383.733 225.955C383.733 227.176 383.988 236.322 383.733 236.125C385.909 235.063 388.172 234.121 390.505 233.305V233.305Z" fill="#70C324"/>
<path d="M86.1539 265.902L86.056 256.59C86.056 256.59 91.9865 255.456 91.9865 256.677C91.9865 257.898 91.732 267.052 91.9865 266.847C90.0735 266.418 88.1241 266.102 86.1539 265.902V265.902Z" fill="#70C324"/>
<path d="M85.6942 234.857L85.6355 225.648C85.6355 225.648 92.2901 224.734 92.2901 225.955C92.2901 227.176 92.0357 236.322 92.2901 236.125C90.1297 235.583 87.926 235.159 85.6942 234.857Z" fill="#71C324"/>
<path d="M348.426 195.619C341.549 192.545 333.783 190.99 325.918 191.113H318.089C313.234 191.184 308.441 190.225 304.193 188.332C303.041 187.782 301.981 187.115 301.041 186.347L297.362 183.235C295.842 182.015 294.135 180.956 292.283 180.084C286.426 177.584 279.993 176.08 273.384 175.664C266.775 175.248 260.131 175.929 253.862 177.666L247.012 179.556C240.656 181.258 233.784 181.244 227.439 179.517L220.99 177.744C213.774 175.609 205.995 175.006 198.405 175.994C190.815 176.982 183.669 179.527 177.657 183.385L173.605 186.693C168.95 189.973 162.893 191.668 156.714 191.42H149.228C131.73 191.42 117.608 198.313 117.589 206.781V210.641C117.589 214.029 113.968 217.148 107.871 218.842L101.373 220.654C86.2632 224.908 81.1255 234.282 89.9624 241.687L93.8769 244.996C94.7143 245.583 95.3867 246.307 95.8496 247.12C96.3126 247.933 96.5553 248.816 96.5618 249.71C96.5683 250.604 96.3383 251.489 95.8872 252.306C95.4361 253.123 94.7742 253.854 93.9454 254.449L90.2169 257.6C82.9653 263.776 85.4901 271.362 95.4427 276.16C97.5183 277.151 99.7155 277.967 101.999 278.594L116.679 282.69C117.334 283.242 118.068 283.833 118.724 284.384V292.348C118.995 294.655 120.005 296.866 121.655 298.764C123.305 300.663 125.539 302.185 128.138 303.18C135.014 306.256 142.782 307.805 150.647 307.67H169.534L171.168 308.694L179.35 315.548C180.861 316.797 182.572 317.878 184.439 318.762C190.289 321.236 196.703 322.726 203.291 323.141C209.879 323.557 216.504 322.89 222.761 321.181L229.612 319.29C235.964 317.584 242.832 317.584 249.184 319.29L255.702 321.102C262.919 323.238 270.698 323.842 278.29 322.856C285.882 321.869 293.03 319.325 299.045 315.469L302.96 312.161C307.61 308.874 313.67 307.178 319.851 307.434H327.337C344.952 307.434 359.113 300.541 359.064 292.033L358.956 288.205C358.956 284.817 362.734 281.706 368.743 279.973L375.162 278.2C390.429 273.946 395.498 264.532 386.661 257.206L382.747 253.89C381.917 253.29 381.253 252.557 380.796 251.738C380.339 250.919 380.101 250.032 380.095 249.134C380.089 248.236 380.317 247.348 380.764 246.525C381.21 245.703 381.866 244.964 382.688 244.358L386.328 241.246C393.639 235.117 391.221 227.523 381.23 222.718C379.114 221.712 376.874 220.886 374.546 220.252L367.783 218.314C366.356 217.928 364.981 217.424 363.683 216.81C362.09 216.19 360.725 215.248 359.721 214.075C358.717 212.903 358.11 211.54 357.958 210.121L357.85 206.537C357.594 204.221 356.593 201.998 354.946 200.088C353.299 198.177 351.062 196.645 348.456 195.642" fill="url(#paint2_radial)"/>
<path d="M348.298 187.952C341.42 184.879 333.654 183.325 325.789 183.446H317.96C313.105 183.517 308.313 182.558 304.064 180.666C302.915 180.116 301.859 179.448 300.923 178.68L297.233 175.529C295.716 174.308 294.008 173.248 292.154 172.378C286.298 169.881 279.867 168.377 273.26 167.961C266.653 167.545 260.011 168.226 253.743 169.96L246.893 171.858C240.541 173.565 233.672 173.565 227.32 171.858L220.881 170.078C213.663 167.943 205.883 167.34 198.292 168.328C190.7 169.316 183.553 171.861 177.538 175.718L173.496 179.027C168.837 182.306 162.777 184.001 156.595 183.754H149.08C131.582 183.793 117.47 190.647 117.441 199.115V202.975C117.441 206.37 113.82 209.482 107.733 211.176L101.235 212.988C86.1249 217.242 80.9773 226.616 89.8143 234.021L93.7287 237.33C94.5655 237.918 95.2372 238.642 95.6993 239.455C96.1614 240.268 96.4032 241.151 96.4088 242.045C96.4143 242.94 96.1834 243.824 95.7315 244.641C95.2795 245.458 94.6169 246.188 93.7875 246.783L90.0687 249.934C82.8073 256.11 85.342 263.696 95.2848 268.494C97.3628 269.486 99.5635 270.302 101.851 270.928L116.531 275.024C117.186 275.576 117.92 276.166 118.576 276.718L118.635 284.682C118.891 286.99 119.887 289.205 121.525 291.111C123.163 293.016 125.387 294.547 127.981 295.553C134.858 298.627 142.625 300.176 150.489 300.044H169.366L171.001 301.068L179.182 307.921C180.692 309.171 182.404 310.252 184.271 311.135C190.123 313.609 196.539 315.099 203.129 315.515C209.718 315.931 216.344 315.263 222.603 313.554L229.454 311.663C235.806 309.957 242.674 309.957 249.026 311.663L255.554 313.475C262.769 315.612 270.547 316.216 278.137 315.229C285.727 314.243 292.874 311.699 298.887 307.842L302.802 304.534C307.457 301.249 313.52 299.553 319.702 299.807H327.189C344.804 299.807 358.965 292.914 358.906 284.406L358.798 280.578C358.798 277.191 362.576 274.079 368.585 272.346L374.995 270.573C390.271 266.319 395.33 256.906 386.493 249.579L382.579 246.271C381.748 245.671 381.083 244.937 380.626 244.118C380.168 243.299 379.928 242.411 379.922 241.513C379.915 240.615 380.142 239.725 380.588 238.902C381.034 238.078 381.689 237.339 382.51 236.731L386.151 233.619C393.461 227.49 391.044 219.896 381.062 215.091C378.946 214.085 376.706 213.259 374.378 212.625L367.606 210.695C366.179 210.304 364.806 209.797 363.506 209.183C361.914 208.562 360.549 207.62 359.546 206.447C358.542 205.275 357.934 203.913 357.781 202.495L357.683 198.91C357.42 196.596 356.416 194.375 354.77 192.466C353.123 190.556 350.89 189.023 348.288 188.015" fill="url(#paint3_radial)"/>
<path d="M343.719 186.937C337.424 184.117 330.312 182.692 323.109 182.809H315.965C311.52 182.876 307.132 181.998 303.243 180.265C302.187 179.765 301.219 179.152 300.366 178.445L296.989 175.601C295.608 174.473 294.049 173.495 292.351 172.694C286.993 170.41 281.109 169.034 275.065 168.654C269.02 168.273 262.943 168.895 257.208 170.481L250.965 172.214C245.141 173.785 238.84 173.785 233.017 172.214L227.145 170.599C220.544 168.644 213.428 168.091 206.484 168.993C199.54 169.895 193.003 172.223 187.501 175.751L183.802 178.776C179.541 181.779 173.996 183.33 168.34 183.101H161.489C145.479 183.14 132.571 189.403 132.542 197.154V200.692C132.542 203.787 129.234 206.631 123.656 208.183L117.716 209.845C103.888 213.737 99.1805 222.316 107.274 229.09L110.865 232.116C111.636 232.653 112.255 233.316 112.681 234.061C113.107 234.807 113.331 235.617 113.336 236.438C113.342 237.258 113.129 238.07 112.713 238.819C112.297 239.568 111.687 240.237 110.924 240.781L107.518 243.664C100.873 249.312 103.193 256.268 112.294 260.648C114.196 261.55 116.205 262.294 118.293 262.87L131.72 266.62C132.317 267.124 132.992 267.667 133.589 268.195L133.638 275.474C133.871 277.586 134.782 279.612 136.282 281.355C137.781 283.098 139.817 284.497 142.191 285.416C148.469 288.225 155.56 289.644 162.742 289.528H180.103L181.59 290.465L189.077 296.767C190.461 297.908 192.028 298.896 193.735 299.706C199.088 301.969 204.956 303.333 210.984 303.713C217.012 304.094 223.073 303.484 228.799 301.919L235.043 300.186C240.863 298.618 247.16 298.618 252.981 300.186L258.95 301.841C265.552 303.794 272.667 304.347 279.611 303.444C286.554 302.542 293.092 300.215 298.594 296.689L302.147 293.664C306.401 290.657 311.945 289.105 317.599 289.339H324.45C340.528 289.339 353.515 283.037 353.466 275.246L353.368 271.748C353.368 268.652 356.822 265.8 362.322 264.217L368.194 262.594C382.159 258.703 386.788 250.092 378.714 243.388L375.113 240.363C374.353 239.815 373.744 239.145 373.326 238.396C372.907 237.646 372.688 236.835 372.682 236.014C372.677 235.192 372.885 234.379 373.293 233.626C373.702 232.873 374.302 232.198 375.054 231.643L378.391 228.791C385.075 223.182 382.844 216.242 373.733 211.838C371.796 210.92 369.746 210.165 367.617 209.585L361.422 207.821C360.117 207.463 358.861 206.999 357.674 206.434C356.217 205.869 354.968 205.008 354.05 203.936C353.132 202.864 352.577 201.618 352.438 200.321L352.34 197.044C352.101 194.927 351.184 192.895 349.678 191.149C348.172 189.402 346.129 188 343.748 187.079" fill="url(#paint4_linear)"/>
<path d="M214.207 237.204C210.698 231.621 205.12 227.054 198.245 224.135C184.557 218.523 169.413 215.597 154.051 215.597C138.689 215.597 123.545 218.523 109.856 224.135C103.024 227.05 97.5053 231.623 94.0808 237.204H91.7615V244.884C92.3501 249.287 94.3611 253.488 97.5941 257.071C100.827 260.653 105.17 263.492 110.189 265.303C123.855 270.896 138.969 273.811 154.3 273.811C169.631 273.811 184.746 270.896 198.412 265.303C203.411 263.494 207.725 260.652 210.917 257.065C214.109 253.479 216.065 249.276 216.585 244.884V244.884V237.211L214.207 237.204ZM189.379 261.089C178.515 265.541 166.496 267.862 154.305 267.862C142.114 267.862 130.096 265.541 119.231 261.089C99.796 252.061 99.61 237.377 118.918 228.341C129.813 223.89 141.858 221.571 154.075 221.571C166.293 221.571 178.338 223.89 189.232 228.341C208.668 237.377 208.687 252.061 189.379 261.089Z" fill="#FFEAD4"/>
<path d="M119.233 255.127C99.7975 246.099 99.6116 231.415 118.92 222.379C129.814 217.928 141.859 215.609 154.077 215.609C166.294 215.609 178.339 217.928 189.234 222.379C208.669 231.415 208.689 246.099 189.381 255.127C178.516 259.579 166.498 261.9 154.307 261.9C142.116 261.9 130.097 259.579 119.233 255.127V255.127ZM198.247 218.173C184.558 212.561 169.414 209.635 154.052 209.635C138.691 209.635 123.547 212.561 109.858 218.173C85.6075 229.516 85.7347 247.958 110.23 259.341C123.896 264.934 139.01 267.849 154.341 267.849C169.672 267.849 184.786 264.934 198.452 259.341C222.781 247.958 222.654 229.516 198.247 218.173Z" fill="#FEF8E8"/>
<path d="M380.621 251.187C377.672 246.499 372.988 242.665 367.214 240.213C355.723 235.503 343.01 233.047 330.114 233.047C317.219 233.047 304.506 235.503 293.015 240.213C287.277 242.661 282.641 246.5 279.764 251.187H277.807V257.631C278.299 261.326 279.986 264.854 282.699 267.861C285.411 270.869 289.056 273.252 293.269 274.772C304.744 279.468 317.433 281.916 330.305 281.916C343.177 281.916 355.867 279.468 367.341 274.772C371.532 273.25 375.149 270.863 377.823 267.852C380.497 264.842 382.135 261.315 382.569 257.631V251.187H380.621ZM359.777 271.243C350.656 274.983 340.566 276.933 330.33 276.933C320.094 276.933 310.004 274.983 300.883 271.243C284.569 263.665 284.413 251.336 300.619 243.75C309.767 240.014 319.881 238.067 330.139 238.067C340.397 238.067 350.511 240.014 359.659 243.75C375.973 251.321 375.992 263.649 359.777 271.227V271.243Z" fill="#FFEAD4"/>
<path d="M300.883 266.233C284.57 258.655 284.413 246.326 300.619 238.74C309.767 235.004 319.881 233.057 330.139 233.057C340.397 233.057 350.511 235.004 359.659 238.74C375.973 246.326 375.992 258.655 359.777 266.233C350.656 269.973 340.566 271.923 330.33 271.923C320.094 271.923 310.004 269.973 300.883 266.233ZM367.214 235.203C355.723 230.492 343.01 228.037 330.115 228.037C317.219 228.037 304.506 230.492 293.015 235.203C272.65 244.735 272.758 260.215 293.318 269.77C304.791 274.47 317.482 276.919 330.354 276.919C343.227 276.919 355.917 274.47 367.39 269.77C387.824 260.215 387.716 244.727 367.214 235.203Z" fill="#FEF8E8"/>
<path d="M286.263 273.473C282.932 268.179 277.638 263.852 271.114 261.089C258.144 255.772 243.795 253.001 229.239 253.001C214.684 253.001 200.335 255.772 187.364 261.089C180.89 263.853 175.66 268.185 172.41 273.473H170.218V280.744C170.778 284.923 172.691 288.911 175.764 292.308C178.838 295.706 182.966 298.395 187.736 300.107C200.686 305.405 215.006 308.166 229.533 308.166C244.059 308.166 258.38 305.405 271.33 300.107C276.06 298.386 280.142 295.69 283.161 292.291C286.181 288.892 288.031 284.911 288.524 280.752V273.48L286.263 273.473ZM262.776 296.113C252.482 300.331 241.094 302.529 229.542 302.529C217.991 302.529 206.603 300.331 196.308 296.113C177.891 287.558 177.715 273.638 196.015 265.083C206.336 260.861 217.75 258.66 229.327 258.66C240.904 258.66 252.318 260.861 262.639 265.083C281.018 273.638 281.038 287.558 262.737 296.089L262.776 296.113Z" fill="#FFEAD4"/>
<path d="M196.269 290.48C177.852 281.917 177.676 268.005 195.976 259.442C206.298 255.224 217.712 253.025 229.288 253.025C240.865 253.025 252.278 255.224 262.6 259.442C281.018 268.005 281.038 281.917 262.737 290.472C252.443 294.692 241.055 296.891 229.503 296.891C217.951 296.891 206.563 294.692 196.269 290.472V290.48ZM271.134 255.448C258.165 250.128 243.815 247.354 229.259 247.354C214.702 247.354 200.353 250.128 187.383 255.448C164.405 266.193 164.523 283.674 187.736 294.458C200.684 299.76 215.006 302.523 229.533 302.523C244.06 302.523 258.381 299.76 271.33 294.458C294.386 283.674 294.269 266.193 271.134 255.448" fill="#FEF8E8"/>
<path d="M342.368 211.799C338.927 206.314 333.456 201.825 326.71 198.95C313.256 193.432 298.37 190.554 283.269 190.554C268.168 190.554 253.282 193.432 239.828 198.95C233.095 201.811 227.654 206.307 224.278 211.799H221.997V219.338C222.579 223.665 224.556 227.794 227.734 231.316C230.912 234.837 235.179 237.628 240.112 239.41C253.546 244.909 268.403 247.776 283.474 247.776C298.546 247.776 313.403 244.909 326.837 239.41C331.744 237.627 335.978 234.832 339.11 231.306C342.241 227.781 344.159 223.652 344.668 219.338V211.799H342.368ZM317.971 235.282C307.29 239.659 295.474 241.94 283.489 241.94C271.504 241.94 259.688 239.659 249.007 235.282C229.905 226.404 229.719 211.972 248.694 203.086C259.404 198.708 271.247 196.426 283.259 196.426C295.271 196.426 307.114 198.708 317.824 203.086C336.927 211.996 336.946 226.436 317.971 235.314V235.282Z" fill="#FFEAD4"/>
<path d="M249.008 229.468C229.905 220.59 229.719 206.15 248.695 197.272C259.405 192.894 271.247 190.612 283.26 190.612C295.272 190.612 307.114 192.894 317.824 197.272C336.927 206.15 336.947 220.59 317.971 229.468C307.29 233.845 295.475 236.126 283.489 236.126C271.504 236.126 259.689 233.845 249.008 229.468V229.468ZM326.671 193.136C313.217 187.618 298.331 184.74 283.23 184.74C268.13 184.74 253.244 187.618 239.789 193.136C215.95 204.291 216.077 222.418 240.151 233.612C253.586 239.109 268.443 241.975 283.514 241.975C298.585 241.975 313.442 239.109 326.877 233.612C350.804 222.426 350.677 204.291 326.671 193.144" fill="#FEF8E8"/>
<path d="M114.817 249.116C115.679 250.148 116.775 251.18 117.812 252.212C117.453 251.931 117.125 251.625 116.833 251.298C116.099 250.605 115.395 249.809 114.817 249.116Z" fill="#B44F49"/>
<path d="M176.538 281.059C180.942 282.083 185.209 283.115 189.192 283.919C184.913 283.148 180.689 282.194 176.538 281.059V281.059Z" fill="#B44F49"/>
<path d="M376.697 181.361C371.923 174.55 365.687 168.474 358.279 163.416C338.343 149.619 314.375 140.132 288.63 135.844C262.947 131.61 236.549 130.968 210.595 133.945C183.039 135.954 156.58 143.604 133.734 156.168C121.067 162.502 110.856 171.565 104.258 182.33C99.0703 191.381 96.631 201.295 97.1415 211.254C97.6519 221.214 101.098 230.932 107.194 239.608C121.11 261.028 149.275 274.191 177.997 281.36C222.904 292.587 271.163 291.534 315.249 278.366C342.394 271.2 365.257 256.16 379.388 236.174C384.362 228.942 386.158 220.571 384.486 212.415C384.876 203.01 382.937 193.638 378.781 184.843C378.116 183.656 377.421 182.495 376.697 181.361ZM149.235 150.488C199.576 127.021 281.486 127.021 332.111 150.488C355.852 161.478 368.515 175.784 370.081 190.208C370.9 199.759 367.303 209.218 359.982 216.763C352.587 224.532 343.295 231.001 332.678 235.772C282.338 259.232 200.427 259.232 149.803 235.772C138.761 230.973 129.153 224.292 121.648 216.196C114.441 208.572 110.996 199.07 111.979 189.522C113.682 175.327 126.052 161.383 149.235 150.488Z" fill="url(#paint5_radial)"/>
<path d="M381.198 194.185C382.086 204.561 378.178 214.835 370.227 223.033C362.197 231.47 352.105 238.494 340.575 243.672C285.9 269.157 196.933 269.157 141.915 243.672C129.925 238.453 119.489 231.195 111.333 222.403C103.507 214.123 99.7669 203.805 100.832 193.437C102.692 178.02 116.128 162.856 141.298 151.039C195.974 125.555 284.94 125.555 339.959 151.039C365.745 162.958 379.495 178.516 381.198 194.185Z" fill="#9B3E3E"/>
<path d="M241.383 251.338C209.244 251.918 177.456 245.862 149.05 233.747C138.854 229.339 129.958 223.212 122.97 215.786C117.122 209.767 114.284 202.205 115.014 194.587C116.501 182.306 128.382 170.363 148.492 160.926C176.781 148.827 208.458 142.783 240.483 143.374C272.622 142.793 304.41 148.849 332.816 160.965C353.514 170.536 365.649 182.684 366.989 195.178C367.57 202.796 364.616 210.317 358.7 216.282C351.805 223.425 343.191 229.375 333.374 233.778C305.086 245.88 273.409 251.927 241.383 251.338V251.338Z" fill="#913B3B"/>
<path d="M301.099 142.853C254.986 132.525 214.452 131.706 171.246 118.534C145.13 154.18 112.328 186.361 74 213.941C121.894 216.304 302.273 256.031 289.522 284.658C313.841 230.066 343.532 206.835 387.57 164.847C387.57 164.847 347.212 153.18 301.099 142.853Z" fill="url(#paint6_radial)"/>
<path d="M374.916 161.673H371.834C370.262 157.643 368.031 153.799 365.199 150.243C356.723 140.045 345.245 131.694 331.788 125.933C331.404 125.676 330.952 125.493 330.467 125.397C308.288 115.589 283.71 109.808 258.46 108.46C232.216 106.437 205.733 108.366 180.366 114.148C159.33 118.71 139.947 127.241 123.821 139.033C115.627 145.279 109.504 153.075 106.01 161.713H103.27V177.673C103.284 179.855 103.533 182.032 104.014 184.18C107.385 198.378 117.198 211.059 131.543 219.755C151.568 232.051 175.135 240.065 200.046 243.05C258.91 251.786 322.198 240.009 354.091 214.595C364.732 206.615 371.737 195.99 373.987 184.424V184.227C374.452 182.265 374.672 180.269 374.642 178.272L374.75 176.696H374.848L374.916 161.673ZM323.773 205.292C277.24 226.995 201.622 226.995 155.088 205.292C140.52 199.361 128.996 189.507 122.52 177.444H145.028V161.689H120.22C122.236 148.912 133.588 136.386 154.472 126.571C200.956 104.844 276.418 104.978 323.274 126.72C344.188 136.481 355.716 148.959 357.937 161.713H344.09V177.468L356.039 177.137C349.823 189.332 338.373 199.323 323.773 205.292Z" fill="url(#paint7_radial)"/>
<path d="M335.478 204.543C282.515 227.247 196.435 227.247 143.472 204.543C90.1371 181.84 89.9512 145.02 142.718 122.175C195.682 99.4712 281.585 99.613 334.92 122.316C387.873 145.02 388.441 181.864 335.478 204.543Z" fill="#FF5C3D"/>
<path d="M239.466 208.341C208.938 208.915 178.68 203.619 151.204 192.893C131.24 184.393 119.8 173.616 119.751 163.304C119.702 152.992 130.927 142.334 150.509 133.858C177.855 123.176 207.973 117.902 238.36 118.472C269.096 117.927 299.553 123.262 327.229 134.039C347.065 142.547 358.486 153.355 358.486 163.69C358.486 173.876 347.281 184.519 327.757 192.885C300.273 203.617 270.005 208.916 239.466 208.341V208.341Z" fill="#FF6F5C"/>
<path opacity="0.4" d="M374.916 161.673H371.834C370.262 157.643 368.031 153.799 365.199 150.243C356.723 140.045 345.245 131.694 331.788 125.933C331.404 125.676 330.952 125.493 330.467 125.397C308.288 115.589 283.71 109.808 258.46 108.46C232.216 106.437 205.733 108.366 180.366 114.148C159.33 118.71 139.947 127.241 123.821 139.033C115.627 145.279 109.504 153.075 106.01 161.713H103.27V177.673C103.284 179.855 103.533 182.032 104.014 184.18C107.385 198.378 117.198 211.059 131.543 219.755C151.568 232.051 175.135 240.065 200.046 243.05C258.91 251.786 322.198 240.009 354.091 214.595C364.732 206.615 371.737 195.99 373.987 184.424V184.227C374.452 182.265 374.672 180.269 374.642 178.272L374.75 176.696H374.848L374.916 161.673ZM323.773 205.292C277.24 226.995 201.622 226.995 155.088 205.292C140.52 199.361 128.996 189.507 122.52 177.444H145.028V161.689H120.22C122.236 148.912 133.588 136.386 154.472 126.571C200.956 104.844 276.418 104.978 323.274 126.72C344.188 136.481 355.716 148.959 357.937 161.713H344.09V177.468L356.039 177.137C349.823 189.332 338.373 199.323 323.773 205.292Z" fill="url(#paint8_radial)"/>
<path d="M312.579 89.2538C265.817 75.7021 214.673 75.5796 167.811 88.9072C131.71 99.0615 89.463 125.326 89.463 167.211C89.463 210.136 145.773 227.735 238.214 227.735C328.628 227.735 388.921 211.231 388.921 168.085C388.931 125.428 349.258 100.566 312.579 89.2538Z" fill="url(#paint9_radial)"/>
<path d="M161.342 141.948C157.936 145.43 152.788 146.746 150.802 145.493C148.815 144.24 149.089 139.742 152.505 136.253C155.92 132.763 163.269 129.494 165.227 130.738C167.184 131.983 164.747 138.458 161.342 141.948Z" fill="#FFEDCC"/>
<path d="M111.981 165.045C107.704 165.305 104.015 163.194 103.839 161.264C103.662 159.334 106.96 156.639 111.247 156.387C115.533 156.135 121.757 158.246 121.943 160.176C122.129 162.106 116.257 164.785 111.981 165.045Z" fill="#FFEDCC"/>
<path d="M127.451 134.22C125.044 136.898 120.856 137.765 118.986 136.678C117.95 135.624 117.397 134.315 117.422 132.971C117.447 131.628 118.048 130.332 119.123 129.304C121.531 126.626 127.314 124.254 129.174 125.365C131.033 126.476 129.859 131.533 127.451 134.22Z" fill="#FFEDCC"/>
<path d="M215.637 133.439C217.124 136.969 215.383 140.64 212.926 141.317C210.47 141.995 206.076 139.931 204.598 136.409C203.12 132.888 204.177 127.059 206.634 126.389C209.09 125.719 214.149 129.91 215.637 133.439Z" fill="#FFEDCC"/>
<path d="M257.12 162.256C255.76 166.195 251.326 168.724 248.557 168.11C246.776 167.241 245.422 165.905 244.723 164.326C244.024 162.748 244.023 161.023 244.721 159.444C246.081 155.505 251.571 150.668 254.321 151.283C257.071 151.897 258.48 158.278 257.12 162.256Z" fill="#FFEDCC"/>
<path d="M191.404 166.493C192.53 171.11 190.015 175.395 187.157 175.844C184.3 176.293 179.72 173.055 178.604 168.439C177.488 163.823 179.583 156.764 182.421 156.315C185.259 155.866 190.289 161.885 191.404 166.493Z" fill="#FFEDCC"/>
<path d="M293.046 144.232C292.87 147.384 290.11 149.841 287.898 149.747C285.687 149.652 283.005 146.958 283.211 143.807C283.416 140.656 286.45 136.339 288.642 136.418C290.834 136.497 293.222 141.081 293.046 144.232Z" fill="#FFEDCC"/>
<path d="M365.767 135.433C368.908 137.308 369.887 140.538 368.585 141.956C367.325 142.74 365.766 143.15 364.174 143.115C362.581 143.081 361.052 142.604 359.846 141.767C356.705 139.892 353.974 135.465 355.266 134.007C356.558 132.55 362.615 133.55 365.767 135.433Z" fill="#FFEDCC"/>
<path d="M329.831 118.779C331.358 119.775 332.404 121.171 332.787 122.724C333.169 124.277 332.865 125.888 331.925 127.279C330.19 128.076 328.166 128.366 326.196 128.101C324.225 127.835 322.429 127.03 321.111 125.821C317.608 123.04 315.171 117.116 317.099 115.533C319.027 113.95 326.317 115.998 329.831 118.779Z" fill="#FFEDCC"/>
<path d="M335.341 160.177C332.503 163.58 327.365 164.809 324.987 163.525C323.648 162.254 322.893 160.651 322.851 158.985C322.808 157.32 323.479 155.693 324.752 154.379C327.59 150.976 334.617 147.84 336.995 149.117C339.373 150.393 338.179 156.766 335.341 160.177Z" fill="#FFEDCC"/>
<path d="M253.87 116.298C258.391 118.062 260.584 121.938 259.36 123.978C258.003 125.205 256.162 126.018 254.148 126.279C252.133 126.54 250.069 126.234 248.302 125.412C243.781 123.655 239.015 118.558 240.238 116.526C241.461 114.494 249.359 114.541 253.87 116.298Z" fill="#FFEDCC"/>
<path d="M201.515 104.663C199.724 107.531 195.868 108.878 193.872 108.066C192.674 107.185 191.892 105.998 191.658 104.706C191.425 103.413 191.754 102.096 192.59 100.977C194.391 98.1091 199.44 95.1234 201.466 95.9348C203.492 96.7462 203.316 101.764 201.515 104.663Z" fill="#FFEDCC"/>
<path d="M158.788 108.231C159.884 111.319 158.191 114.415 156.048 114.911C153.905 115.407 150.235 113.493 149.129 110.405C148.023 107.317 149.256 102.346 151.399 101.85C153.542 101.354 157.692 105.143 158.788 108.231Z" fill="#FFEDCC"/>
<path d="M244.692 93.05C246.128 93.9419 247.129 95.2107 247.523 96.6357C247.916 98.0606 247.676 99.5515 246.845 100.849C245.269 101.608 243.416 101.907 241.599 101.697C239.781 101.486 238.109 100.777 236.863 99.6909C233.555 97.1936 231.148 91.7738 232.89 90.2849C234.632 88.7961 241.384 90.5528 244.692 93.05Z" fill="#FFEDCC"/>
<path d="M291.96 99.9359C292.741 101.141 292.973 102.528 292.615 103.856C292.257 105.185 291.333 106.37 290.002 107.207C287.81 107.916 283.69 106.222 282.115 103.071C280.539 99.9201 281.136 94.5791 283.338 93.8701C285.54 93.1611 290.384 96.7848 291.96 99.9359Z" fill="#FFEDCC"/>
<defs>
<radialGradient id="paint0_radial" cx="0" cy="0" r="1" gradientUnits="userSpaceOnUse" gradientTransform="translate(168.144 365.374) rotate(0.138365) scale(712.449 134.201)">
<stop stop-color="#D98437"/>
<stop offset="0.014" stop-color="#D98538"/>
<stop offset="0.625" stop-color="#E79D4C"/>
<stop offset="1" stop-color="#ECA654"/>
</radialGradient>
<radialGradient id="paint1_radial" cx="0" cy="0" r="1" gradientUnits="userSpaceOnUse" gradientTransform="translate(-0.839799 335.151) rotate(-1.19899) scale(818.689 166.121)">
<stop stop-color="#AB4D00" stop-opacity="0"/>
<stop offset="0.253" stop-color="#AB4D00" stop-opacity="0.34"/>
<stop offset="0.498" stop-color="#AB4D00" stop-opacity="0.624"/>
<stop offset="0.711" stop-color="#AB4D00" stop-opacity="0.829"/>
<stop offset="0.886" stop-color="#AB4D00" stop-opacity="0.954"/>
<stop offset="1" stop-color="#AB4D00"/>
</radialGradient>
<radialGradient id="paint2_radial" cx="0" cy="0" r="1" gradientUnits="userSpaceOnUse" gradientTransform="translate(238.302 249.475) scale(161.708 100.491)">
<stop stop-color="#B2ED48"/>
<stop offset="0.401" stop-color="#90D735"/>
<stop offset="0.773" stop-color="#78C828"/>
<stop offset="1" stop-color="#6FC223"/>
</radialGradient>
<radialGradient id="paint3_radial" cx="0" cy="0" r="1" gradientUnits="userSpaceOnUse" gradientTransform="translate(6130.7 3925.89) scale(7963.7 3339.29)">
<stop stop-color="#B2ED48"/>
<stop offset="0.401" stop-color="#90D735"/>
<stop offset="0.773" stop-color="#78C828"/>
<stop offset="1" stop-color="#6FC223"/>
</radialGradient>
<linearGradient id="paint4_linear" x1="248.039" y1="432.791" x2="243.808" y2="178.462" gradientUnits="userSpaceOnUse">
<stop stop-color="#6FC223"/>
<stop offset="0.104" stop-color="#6FC223" stop-opacity="0.954"/>
<stop offset="0.274" stop-color="#6FC223" stop-opacity="0.827"/>
<stop offset="0.488" stop-color="#6FC223" stop-opacity="0.621"/>
<stop offset="0.739" stop-color="#6FC223" stop-opacity="0.336"/>
<stop offset="1" stop-color="#6FC223" stop-opacity="0"/>
</linearGradient>
<radialGradient id="paint5_radial" cx="0" cy="0" r="1" gradientUnits="userSpaceOnUse" gradientTransform="translate(200.31 151.174) scale(397.125 319.675)">
<stop stop-color="#B44F49"/>
<stop offset="0.056" stop-color="#AE4C47"/>
<stop offset="0.47" stop-color="#863737"/>
<stop offset="0.799" stop-color="#6E2A2E"/>
<stop offset="1" stop-color="#65252A"/>
</radialGradient>
<radialGradient id="paint6_radial" cx="0" cy="0" r="1" gradientUnits="userSpaceOnUse" gradientTransform="translate(157.222 201.935) scale(215.365 173.363)">
<stop stop-color="#FFC018"/>
<stop offset="0.442" stop-color="#FFB614"/>
<stop offset="1" stop-color="#FFA20C"/>
</radialGradient>
<radialGradient id="paint7_radial" cx="0" cy="0" r="1" gradientUnits="userSpaceOnUse" gradientTransform="translate(105.541 167.03) scale(372.278 299.674)">
<stop stop-color="#FF473D"/>
<stop offset="0.313" stop-color="#F83D34"/>
<stop offset="0.851" stop-color="#E6211A"/>
<stop offset="1" stop-color="#E01812"/>
</radialGradient>
<radialGradient id="paint8_radial" cx="0" cy="0" r="1" gradientUnits="userSpaceOnUse" gradientTransform="translate(199.799 228.165) rotate(5.38562) scale(82.8868 30.7055)">
<stop stop-color="#FF9A8C"/>
<stop offset="0.086" stop-color="#FF9A8C" stop-opacity="0.959"/>
<stop offset="0.233" stop-color="#FF9A8C" stop-opacity="0.85"/>
<stop offset="0.425" stop-color="#FF9A8C" stop-opacity="0.671"/>
<stop offset="0.654" stop-color="#FF9A8C" stop-opacity="0.424"/>
<stop offset="0.912" stop-color="#FF9A8C" stop-opacity="0.113"/>
<stop offset="1" stop-color="#FF9A8C" stop-opacity="0"/>
</radialGradient>
<radialGradient id="paint9_radial" cx="0" cy="0" r="1" gradientUnits="userSpaceOnUse" gradientTransform="translate(187.591 102.197) rotate(24.6076) scale(231.399 147.767)">
<stop stop-color="#EDA855"/>
<stop offset="1" stop-color="#D97E39"/>
</radialGradient>
</defs>
</svg>
